<svg id="Layer_1" data-name="Layer 1" xmlns="http://www.w3.org/2000/svg" xmlns:xlink="http://www.w3.org/1999/xlink" viewBox="0 0 147.21 110.24"><defs><style>.cls-1{fill:#eae9e4;}.cls-1,.cls-2,.cls-3{stroke:#fff;stroke-miterlimit:10;}.cls-2{fill:url(#linear-gradient);}.cls-3{fill:url(#linear-gradient-2);}.cls-4{isolation:isolate;}.cls-5{fill:#3d1701;}.cls-6{fill:#250e01;}.cls-7{fill:#692901;}.cls-8{fill:#3fc977;}.cls-9{fill:#7295aa;}.cls-10{fill:#5bdd90;}.cls-11{fill:#072e47;}.cls-12{fill:#28ad5e;}.cls-13{fill:#ffcc94;}.cls-14{fill:#fa7564;}.cls-15{fill:#fa543f;}.cls-16{fill:#ffa323;}.cls-17{fill:#f7bd57;}.cls-18{fill:#e4b185;}.cls-19{fill:#b38a68;}.cls-20{fill:#cd9f78;}.cls-21{fill:#998458;}.cls-22{fill:#b29867;}.cls-23{fill:url(#linear-gradient-3);}.cls-24{fill:#9c9b9b;}.cls-25{fill:#2b1102;}.cls-26{fill:#3e1801;}.cls-27{fill:#3b1702;}.cls-28{fill:#673c24;}.cls-29{fill:#6d4026;}.cls-30{fill:#a05d38;}.cls-31{fill:#572201;}.cls-32{fill:#ffb231;}.cls-33{fill:#4c1c01;}.cls-34{fill:#bcb596;}.cls-35{fill:#f1ebda;}.cls-36{fill:#d8d1b4;}.cls-37{fill:#49c1ca;}.cls-38{fill:#389ba0;}.cls-39{fill:#b03814;}.cls-40{fill:#f39e02;}.cls-41{fill:#07334e;}.cls-42{fill:#dcceb6;}.cls-43{fill:#fff;}.cls-44{fill:#edceba;}.cls-45{fill:#f0e7d8;}.cls-46{fill:#bfcbe3;}.cls-47{fill:#ccd6ea;}.cls-48{fill:#e1e4ea;}.cls-49{fill:#025074;}.cls-50{fill:#9ed7e2;}.cls-51{fill:#fafbfd;}.cls-52{fill:#a6bae3;}.cls-53{fill:#1a4b6c;}</style><linearGradient id="linear-gradient" x1="105.8" y1="31.76" x2="94.6" y2="55.8" gradientUnits="userSpaceOnUse"><stop offset="0" stop-color="#eae9e4" stop-opacity="0"/><stop offset="1" stop-color="#eae9e4"/></linearGradient><linearGradient id="linear-gradient-2" x1="26.45" y1="22.7" x2="37.74" y2="48.06" xlink:href="#linear-gradient"/><linearGradient id="linear-gradient-3" x1="29.11" y1="31.23" x2="35.48" y2="31.23" gradientUnits="userSpaceOnUse"><stop offset="0.06" stop-color="#c6c6c5"/><stop offset="1" stop-color="#9c9b9b"/></linearGradient></defs><title>Artboard 7@2x</title><polygon class="cls-1" points="88.48 109.66 59.32 92.96 88.18 76.79 117.34 93.49 88.48 109.66"/><polygon class="cls-1" points="59.32 92.96 30.17 76.27 59.03 60.09 88.18 76.79 59.32 92.96"/><polygon class="cls-1" points="117.34 93.49 88.18 76.79 117.04 60.62 146.19 77.31 117.34 93.49"/><polygon class="cls-1" points="88.18 76.79 59.03 60.09 87.89 43.92 117.04 60.62 88.18 76.79"/><polygon class="cls-1" points="30.17 76.27 1.01 59.57 29.87 43.4 59.03 60.09 30.17 76.27"/><polygon class="cls-1" points="59.03 60.09 29.87 43.4 58.73 27.22 87.89 43.92 59.03 60.09"/><polygon class="cls-2" points="146.04 50.95 58.57 0.87 58.73 27.22 146.19 77.31 146.04 50.95"/><polygon class="cls-3" points="0.86 33.21 58.57 0.87 58.73 27.22 1.01 59.57 0.86 33.21"/><g class="cls-4"><g class="cls-4"><path class="cls-5" d="M80.31,28.19,52.73,12.42a1.12,1.12,0,0,0-.63-.14L79.69,28a1.12,1.12,0,0,1,.63.14Z"/><path class="cls-5" d="M79.69,28,52.11,12.28a1.84,1.84,0,0,0-.71.2L79,28.25a1.84,1.84,0,0,1,.71-.2Z"/><path class="cls-5" d="M79,28.25,51.4,12.48l-.17.09,3.5,2c.06,0,24.19,13.67,24.25,13.65Z"/></g><g class="cls-4"><path class="cls-6" d="M35.46,42.65l-3.5-2A1.48,1.48,0,0,0,32.58,42l3.5,2a1.48,1.48,0,0,1-.62-1.35Z"/></g><polygon class="cls-6" points="35.43 28.18 31.93 26.14 31.97 40.62 35.46 42.65 35.43 28.18"/><polygon class="cls-5" points="54.73 14.6 51.23 12.57 34.03 22.5 37.53 24.53 54.73 14.6"/><g class="cls-4"><g class="cls-4"><path class="cls-5" d="M37.53,24.53l-3.5-2A4.67,4.67,0,0,0,32.14,25l3.5,2a4.67,4.67,0,0,1,1.89-2.45Z"/><path class="cls-6" d="M35.64,27l-3.5-2a3.93,3.93,0,0,0-.2.92l3.5,2a3.93,3.93,0,0,1,.2-.92Z"/><path class="cls-6" d="M35.44,27.91l-3.5-2q0,.14,0,.27l3.5,2q0-.13,0-.27Z"/></g></g><path class="cls-7" d="M37.53,24.53a4.66,4.66,0,0,0-2.11,3.65l0,14.48c0,1.34,1,1.88,2.12,1.21l41.28,3.81A4.66,4.66,0,0,0,81,44l0-14.48c0-1.34-25-15.62-26.2-14.95Z"/></g><g class="cls-4"><g class="cls-4"><path class="cls-8" d="M53.32,4.3l3-1.73a1.69,1.69,0,0,0-1.71-.16l-3,1.73a1.69,1.69,0,0,1,1.71.16Z"/></g><g class="cls-4"><g class="cls-4"><path class="cls-9" d="M101.46,51.24l3-1.73a1.68,1.68,0,0,0,.7-1.54l-3,1.73a1.68,1.68,0,0,1-.7,1.54Z"/></g></g><polygon class="cls-8" points="102.16 49.7 105.15 47.97 105.19 33.2 102.21 34.93 102.16 49.7"/><polygon class="cls-8" points="99.81 30.79 102.8 29.05 56.3 2.56 53.32 4.3 99.81 30.79"/><g class="cls-4"><path class="cls-8" d="M102.21,34.93l3-1.73a5.3,5.3,0,0,0-2.4-4.15l-3,1.73a5.3,5.3,0,0,1,2.4,4.15Z"/></g><path class="cls-10" d="M53.32,4.3c-1.32-.76-2.41-.14-2.41,1.37l0,17.59c0,1.52,1.07.57,2.4,1.33L99.75,51.08c1.32.76,2.41.14,2.41-1.38l0-14.77a5.3,5.3,0,0,0-2.4-4.15Z"/></g><g class="cls-4"><g class="cls-4"><path class="cls-5" d="M35,37.59v5.06a1.48,1.48,0,0,0,.86,1.21V38.81A1.48,1.48,0,0,1,35,37.59Z"/></g><g class="cls-4"><path class="cls-11" d="M97,55.58v5.06a1.49,1.49,0,0,0,.87-1.23V54.36A1.49,1.49,0,0,1,97,55.58Z"/></g><polygon class="cls-5" points="35.83 38.8 35.85 43.86 82.15 70.53 78.93 63.58 35.83 38.8"/><polygon class="cls-11" points="83.14 63.58 83.15 68.64 97.01 60.64 96.99 55.58 83.14 63.58"/><g class="cls-4"><path class="cls-5" d="M78.93,63.58v5.06a4.66,4.66,0,0,0,4.21,0V63.58a4.66,4.66,0,0,1-4.21,0Z"/></g><path class="cls-7" d="M35.84,36.37a1.29,1.29,0,0,0,0,2.44L78.93,63.58a4.66,4.66,0,0,0,4.21,0l13.86-8a1.29,1.29,0,0,0,0-2.44L53.91,28.37a4.66,4.66,0,0,0-4.21,0Z"/></g><g class="cls-4"><path class="cls-12" d="M35.83,33.43,78.93,58.2a4.66,4.66,0,0,0,4.21,0L97,50.2A1.49,1.49,0,0,0,97.87,49V54A1.49,1.49,0,0,1,97,55.26l-13.86,8a4.66,4.66,0,0,1-4.21,0L35.85,38.48A1.48,1.48,0,0,1,35,37.27V32.21A1.48,1.48,0,0,0,35.83,33.43Z"/><path class="cls-8" d="M35.84,31a1.29,1.29,0,0,0,0,2.44L78.93,58.2a4.66,4.66,0,0,0,4.21,0L97,50.2a1.29,1.29,0,0,0,0-2.44L53.91,23a4.66,4.66,0,0,0-4.21,0Z"/></g><g class="cls-4"><g class="cls-4"><g class="cls-4"><path class="cls-13" d="M75.63,29.33l3.48-2-.28-.13-3.48,2,.28.13Z"/><path class="cls-13" d="M75.35,29.2l3.48-2a1.08,1.08,0,0,0-.72,0l-3.48,2a1.08,1.08,0,0,1,.72,0Z"/><path class="cls-14" d="M74.64,29.15l3.48-2L78,27.2l-3.48,2,.15-.07Z"/></g></g><g class="cls-4"><g class="cls-4"><path class="cls-15" d="M89.89,50.67l3.48-2a1.13,1.13,0,0,0,.47-1l-3.48,2a1.13,1.13,0,0,1-.47,1Z"/></g></g><polygon class="cls-16" points="90.37 49.64 93.84 47.62 93.87 37.69 90.39 39.71 90.37 49.64"/><polygon class="cls-13" points="88.78 36.93 92.26 34.91 79.11 27.31 75.63 29.33 88.78 36.93"/><g class="cls-4"><g class="cls-4"><path class="cls-16" d="M90.4,39.71l3.48-2a3,3,0,0,0-.23-1.09l-3.48,2a3,3,0,0,1,.23,1.09Z"/><path class="cls-13" d="M90.17,38.63l3.48-2a3.94,3.94,0,0,0-.56-1l-3.48,2a3.94,3.94,0,0,1,.56,1Z"/><path class="cls-13" d="M89.6,37.66l3.48-2a3,3,0,0,0-.82-.73l-3.48,2a3,3,0,0,1,.82.73Z"/></g></g><path class="cls-17" d="M75.63,29.33c-.89-.51-1.62-.1-1.62.92l0,9.93A3.56,3.56,0,0,0,75.59,43l13.15,7.59c.89.51,1.62.1,1.62-.92l0-9.93a3.56,3.56,0,0,0-1.61-2.79Z"/></g><g class="cls-4"><g class="cls-4"><g class="cls-4"><path class="cls-13" d="M51,15.44l3.48-2-.28-.13-3.48,2,.28.13Z"/><path class="cls-13" d="M50.76,15.31l3.48-2a1.08,1.08,0,0,0-.72,0l-3.48,2a1.08,1.08,0,0,1,.72,0Z"/><path class="cls-14" d="M50,15.26l3.48-2-.15.07-3.48,2,.15-.07Z"/></g></g><g class="cls-4"><g class="cls-4"><path class="cls-16" d="M65.31,36.78l3.48-2a1.13,1.13,0,0,0,.47-1l-3.48,2a1.13,1.13,0,0,1-.47,1Z"/></g></g><polygon class="cls-16" points="65.78 35.75 69.25 33.73 69.28 23.8 65.81 25.82 65.78 35.75"/><polygon class="cls-13" points="64.2 23.03 67.67 21.01 54.52 13.42 51.04 15.44 64.2 23.03"/><g class="cls-4"><g class="cls-4"><path class="cls-16" d="M65.81,25.82l3.48-2a3,3,0,0,0-.23-1.09l-3.48,2a3,3,0,0,1,.23,1.09Z"/><path class="cls-13" d="M65.58,24.73l3.48-2a3.94,3.94,0,0,0-.56-1l-3.48,2a3.94,3.94,0,0,1,.56,1Z"/><path class="cls-13" d="M65,23.77l3.48-2a3,3,0,0,0-.82-.73L64.2,23a3,3,0,0,1,.82.73Z"/></g></g><path class="cls-17" d="M51,15.44c-.89-.51-1.62-.1-1.62.92l0,9.93A3.56,3.56,0,0,0,51,29.08l13.15,7.59c.89.51,1.62.1,1.62-.92l0-9.93A3.56,3.56,0,0,0,64.2,23Z"/></g><g class="cls-4"><g class="cls-4"><path class="cls-6" d="M83.86,70.53l-3.5-2A1.48,1.48,0,0,0,81,69.85l3.5,2a1.48,1.48,0,0,1-.62-1.35Z"/></g><polygon class="cls-6" points="83.82 57.55 80.33 55.52 80.36 68.5 83.86 70.53 83.82 57.55"/><g class="cls-4"><g class="cls-4"><path class="cls-7" d="M82.43,51.88l17.2-9.93.17-.09a1.84,1.84,0,0,1,.71-.2,1.12,1.12,0,0,1,.63.14l3.5,2a1.12,1.12,0,0,0-.63-.14,1.84,1.84,0,0,0-.71.2l-.17.09-17.2,9.93A4.67,4.67,0,0,0,84,56.36l-3.5-2A4.67,4.67,0,0,1,82.43,51.88Z"/><path class="cls-6" d="M84,56.36l-3.5-2a3.93,3.93,0,0,0-.2.92l3.5,2a3.93,3.93,0,0,1,.2-.92Z"/><path class="cls-6" d="M83.83,57.29l-3.5-2q0,.14,0,.27l3.5,2c0-.09,0-.18,0-.27Z"/></g></g><path class="cls-5" d="M85.93,53.91a4.66,4.66,0,0,0-2.11,3.65l0,13c0,1.34,1,1.88,2.12,1.21l17.2-9.93a4.66,4.66,0,0,0,2.1-3.65l0-13c0-1.34-1-1.88-2.12-1.21Z"/></g><polygon class="cls-18" points="24.47 69.41 40.11 60.38 40.11 42.32 24.47 51.35 24.47 69.41"/><polygon class="cls-19" points="24.47 69.41 8.84 60.38 8.84 42.32 24.47 51.35 24.47 69.41"/><polygon class="cls-20" points="40.11 42.32 24.47 33.29 8.84 42.32 19.22 48.32 24.47 51.35 40.11 42.32"/><polygon class="cls-21" points="17.26 50.22 15.3 49.09 15.3 46.05 17.26 47.19 17.26 50.22"/><polygon class="cls-22" points="32.9 38.16 30.94 37.02 15.3 46.05 17.26 47.19 32.9 38.16"/><polygon class="cls-18" points="24.47 49.29 40.11 40.26 40.11 22.2 24.47 31.23 24.47 49.29"/><polygon class="cls-19" points="24.47 49.29 8.84 40.26 8.84 22.2 24.47 31.23 24.47 49.29"/><polygon class="cls-20" points="40.11 22.2 24.47 13.17 8.84 22.2 19.22 28.19 24.47 31.23 40.11 22.2"/><polygon class="cls-21" points="17.26 30.1 15.3 28.97 15.3 25.93 17.26 27.06 17.26 30.1"/><polygon class="cls-22" points="32.9 18.03 30.94 16.9 15.3 25.93 17.26 27.06 32.9 18.03"/><g id="_Group_" data-name="&lt;Group&gt;"><polygon id="_Path_" data-name="&lt;Path&gt;" class="cls-23" points="29.12 30.7 35.48 26.95 35.47 31.76 29.11 35.51 29.12 30.7"/><g id="_Group_2" data-name="&lt;Group&gt;"><g id="_Group_3" data-name="&lt;Group&gt;"><polygon id="_Path_2" data-name="&lt;Path&gt;" class="cls-24" points="31.01 30.4 31.01 30.64 29.62 31.45 29.62 31.22 31.01 30.4"/></g><g id="_Group_4" data-name="&lt;Group&gt;"><polygon id="_Path_3" data-name="&lt;Path&gt;" class="cls-24" points="35.01 30.93 35.01 31.16 33.62 31.98 33.62 31.74 35.01 30.93"/></g><g id="_Group_5" data-name="&lt;Group&gt;"><polygon id="_Path_4" data-name="&lt;Path&gt;" class="cls-24" points="35.01 31.36 35.01 31.59 33.62 32.41 33.62 32.17 35.01 31.36"/></g><g id="_Group_6" data-name="&lt;Group&gt;"><polygon id="_Path_5" data-name="&lt;Path&gt;" class="cls-24" points="33.07 29.84 33.08 30.08 29.62 32.1 29.62 31.86 33.07 29.84"/></g><g id="_Group_7" data-name="&lt;Group&gt;"><polygon id="_Path_6" data-name="&lt;Path&gt;" class="cls-24" points="33.07 30.32 33.08 30.56 29.62 32.59 29.62 32.35 33.07 30.32"/></g><g id="_Group_8" data-name="&lt;Group&gt;"><polygon id="_Path_7" data-name="&lt;Path&gt;" class="cls-24" points="32.1 31.36 32.1 31.59 29.62 33.05 29.62 32.81 32.1 31.36"/></g></g></g><g class="cls-4"><path class="cls-25" d="M131.28,83.09c.59.35.57.92,0,1.26a2.4,2.4,0,0,1-2.18,0c-.59-.35-.57-.92,0-1.26A2.4,2.4,0,0,1,131.28,83.09Z"/><path class="cls-25" d="M128.62,79.12c0,2.08,0,3.88,0,4.59a.76.76,0,0,0,.43.62,2.4,2.4,0,0,0,2.18,0,.78.78,0,0,0,.47-.65V79.12Z"/></g><g class="cls-4"><path class="cls-25" d="M104.15,67.46c.59.35.57.92,0,1.26a2.4,2.4,0,0,1-2.18,0c-.59-.35-.57-.92,0-1.26A2.4,2.4,0,0,1,104.15,67.46Z"/><path class="cls-25" d="M101.49,63.69c0,2,0,3.7,0,4.39a.76.76,0,0,0,.43.62,2.4,2.4,0,0,0,2.18,0,.78.78,0,0,0,.47-.65V63.69Z"/></g><g class="cls-4"><path class="cls-25" d="M141.84,77c.59.35.57.92,0,1.26a2.4,2.4,0,0,1-2.18,0c-.59-.35-.57-.92,0-1.26A2.4,2.4,0,0,1,141.84,77Z"/><path class="cls-25" d="M139.18,74c0,1.65,0,3,0,3.6a.76.76,0,0,0,.43.62,2.4,2.4,0,0,0,2.18,0,.78.78,0,0,0,.47-.65V74Z"/></g><g class="cls-4"><polygon class="cls-26" points="102.89 65.6 114.97 58.58 127.66 65.91 115.58 72.93 102.89 65.6"/><polygon class="cls-27" points="102.98 22.8 115.06 15.79 114.97 58.58 102.89 65.6 102.98 22.8"/><polygon class="cls-26" points="116.19 73.28 128.27 66.26 140.88 73.54 128.8 80.56 116.19 73.28"/><polygon class="cls-28" points="115.68 30.13 127.75 23.11 127.66 65.91 115.58 72.93 115.68 30.13"/><polygon class="cls-27" points="116.29 30.48 128.36 23.46 128.27 66.26 116.19 73.28 116.29 30.48"/><polygon class="cls-29" points="102.98 22.8 115.06 15.79 127.75 23.11 115.68 30.13 102.98 22.8"/><polygon class="cls-30" points="102.89 65.6 115.58 72.93 115.68 30.13 102.98 22.8 102.89 65.6"/><polygon class="cls-30" points="116.29 30.48 116.19 73.28 128.8 80.56 128.9 37.76 116.29 30.48"/><polygon class="cls-29" points="116.29 30.48 128.36 23.46 140.97 30.75 128.9 37.76 116.29 30.48"/><polygon class="cls-28" points="128.9 37.76 140.97 30.75 140.88 73.54 128.8 80.56 128.9 37.76"/><path class="cls-31" d="M101.56,20.44,130.32,37l-.1,46-28.76-16.6Zm14,52.49.09-42.79L103,22.8l-.09,42.79,12.69,7.33Zm13.22,7.63.09-42.79-12.61-7.28-.09,42.79,12.61,7.28Z"/><path class="cls-32" d="M113.94,52.57a1.9,1.9,0,0,1,.86,1.5c0,.55-.39.77-.87.49a1.9,1.9,0,0,1-.86-1.49C113.07,52.51,113.46,52.29,113.94,52.57Z"/><path class="cls-32" d="M118.26,55.06a1.91,1.91,0,0,1,.86,1.5c0,.55-.39.77-.87.5a1.9,1.9,0,0,1-.86-1.5C117.39,55,117.78,54.79,118.26,55.06Z"/><polygon class="cls-33" points="101.56 20.44 113.64 13.42 142.4 30.03 130.32 37.05 101.56 20.44"/><polygon class="cls-5" points="130.32 37.05 142.4 30.03 142.3 76.06 130.22 83.08 130.32 37.05"/></g><polygon class="cls-18" points="84.9 84.19 106.88 71.5 106.88 46.11 84.9 58.81 84.9 84.19"/><polygon class="cls-19" points="84.9 84.19 73.91 77.85 73.91 52.46 84.9 58.81 84.9 84.19"/><polygon class="cls-20" points="106.88 46.11 95.89 39.77 73.91 52.46 77.51 54.54 84.9 58.81 106.88 46.11"/><polygon class="cls-21" points="80.26 60.4 77.51 58.81 77.51 54.54 80.26 56.13 80.26 60.4"/><polygon class="cls-22" points="102.25 43.44 99.5 41.85 77.51 54.54 80.26 56.13 102.25 43.44"/><polygon class="cls-34" points="90.9 57.93 90.84 84.64 109.03 95.08 108.98 68.37 90.9 57.93"/><polygon class="cls-35" points="118 52.71 108.98 47.5 90.9 57.93 99.95 63.16 108.98 68.37 127.05 57.93 118 52.71"/><path class="cls-36" d="M127,57.93,109,68.37,109,95.08l18.07-10.44Z"/><path class="cls-35" d="M99.64,70.91c-3.4-2-6.17-.39-6.18,3.52A13.54,13.54,0,0,0,99.6,85.08c3.4,2,6.17.39,6.18-3.52A13.53,13.53,0,0,0,99.64,70.91Z"/><path class="cls-37" d="M102.36,85.12a4.87,4.87,0,0,1-2.36-.74,12.67,12.67,0,0,1-5.74-9.94c0-2.23,1-3.57,2.61-3.57a4.88,4.88,0,0,1,2.36.74A12.66,12.66,0,0,1,105,81.55c0,2.23-1,3.57-2.61,3.57Z"/><path class="cls-38" d="M94.12,62.18c-.81-.47-1.47-.09-1.47.84a3.22,3.22,0,0,0,1.46,2.53c.81.47,1.47.09,1.47-.84A3.22,3.22,0,0,0,94.12,62.18Z"/><path class="cls-39" d="M96.95,64.62c-.4-.23-.73,0-.73.42a1.61,1.61,0,0,0,.73,1.26c.4.23.73,0,.73-.42A1.61,1.61,0,0,0,96.95,64.62Z"/><path class="cls-40" d="M99.21,65.94c-.4-.23-.73,0-.73.42a1.61,1.61,0,0,0,.73,1.26c.4.23.73,0,.73-.42A1.61,1.61,0,0,0,99.21,65.94Z"/><g class="cls-4"><path class="cls-41" d="M58.4,65.66c.31.19.3.48,0,.66a1.26,1.26,0,0,1-1.14,0c-.31-.19-.3-.48,0-.66A1.26,1.26,0,0,1,58.4,65.66Z"/><path class="cls-41" d="M58.62,58.7c0-1.18,0-2.36,0-3.37a.28.28,0,0,0,0,0,.26.26,0,0,0,0,0l0-.05,0,0,0-.05,0,0-.1-.07a1.26,1.26,0,0,0-1.14,0l-.11.07,0,0-.05.06,0,0,0,.05v0a.28.28,0,0,0,0,.05h0V58.7C57,59.88,57,65,57,66a.4.4,0,0,0,.23.32,1.26,1.26,0,0,0,1.14,0,.41.41,0,0,0,.25-.34Z"/></g><g class="cls-4"><path class="cls-41" d="M49.47,70.73c.31.19.3.48,0,.66a1.26,1.26,0,0,1-1.14,0c-.31-.19-.3-.48,0-.66A1.26,1.26,0,0,1,49.47,70.73Z"/><path class="cls-41" d="M49.68,63.77c0-1.18,0-2.36,0-3.37a.29.29,0,0,0,0,0,.27.27,0,0,0,0,0l0-.05,0,0,0-.05,0,0-.1-.07a1.26,1.26,0,0,0-1.14,0l-.11.07,0,0-.05.06,0,0,0,.05v0a.28.28,0,0,0,0,.05h0v3.37c0,1.18,0,6.27,0,7.28a.4.4,0,0,0,.23.32,1.26,1.26,0,0,0,1.14,0,.41.41,0,0,0,.25-.34Z"/></g><g class="cls-4"><path class="cls-41" d="M39.41,64.79c.31.19.3.48,0,.66a1.26,1.26,0,0,1-1.14,0c-.31-.19-.3-.48,0-.66A1.26,1.26,0,0,1,39.41,64.79Z"/><path class="cls-41" d="M39.62,57.83c0-1.18,0-.57,0-1.58a.27.27,0,0,0,0,0,.29.29,0,0,0,0,0l0-.05,0,0,0-.05,0,0-.1-.07a1.26,1.26,0,0,0-1.14,0l-.11.07,0,0-.05.06,0,0,0,.05v0a.28.28,0,0,0,0,.05h0v1.57c0,1.18,0,6.27,0,7.28a.4.4,0,0,0,.23.32,1.26,1.26,0,0,0,1.14,0,.41.41,0,0,0,.25-.34Z"/></g><g class="cls-4"><polygon class="cls-42" points="47.99 61.82 59.02 55.37 59.02 56.25 47.98 62.7 47.99 61.82"/><polygon class="cls-43" points="37.09 55.53 48.12 49.08 59.02 55.37 47.99 61.82 37.09 55.53"/><polygon class="cls-44" points="47.99 61.82 47.98 62.7 37.09 56.41 37.09 55.53 47.99 61.82"/></g><g class="cls-4"><polygon class="cls-42" points="58.24 40.6 59.03 40.14 59.02 55.38 58.22 55.84 58.24 40.6"/><polygon class="cls-43" points="47.34 34.31 48.14 33.85 59.03 40.14 58.24 40.6 47.34 34.31"/><polygon class="cls-45" points="58.24 40.6 58.22 55.84 47.32 49.55 47.34 34.31 58.24 40.6"/></g><g class="cls-4"><path class="cls-41" d="M71.74,73.35c.31.19.3.48,0,.66a1.26,1.26,0,0,1-1.14,0c-.31-.19-.3-.48,0-.66A1.26,1.26,0,0,1,71.74,73.35Z"/><path class="cls-41" d="M72,66.39c0-1.18,0-2.36,0-3.37a.28.28,0,0,0,0,0,.26.26,0,0,0,0,0l0-.05,0,0,0-.05,0,0-.1-.07a1.26,1.26,0,0,0-1.14,0l-.11.07,0,0-.05.06,0,0,0,.05v0a.28.28,0,0,0,0,.05h0v3.37c0,1.18,0,6.27,0,7.28a.4.4,0,0,0,.23.32,1.26,1.26,0,0,0,1.14,0,.41.41,0,0,0,.25-.34Z"/></g><g class="cls-4"><path class="cls-41" d="M62.81,78.42c.31.19.3.48,0,.66a1.26,1.26,0,0,1-1.14,0c-.31-.19-.3-.48,0-.66A1.26,1.26,0,0,1,62.81,78.42Z"/><path class="cls-41" d="M63,71.46c0-1.18,0-2.36,0-3.37a.29.29,0,0,0,0,0,.27.27,0,0,0,0,0L63,68l0,0,0-.05,0,0-.1-.07a1.26,1.26,0,0,0-1.14,0l-.11.07,0,0-.05.06,0,0,0,.05v0a.28.28,0,0,0,0,.05h0v3.37c0,1.18,0,6.27,0,7.28a.4.4,0,0,0,.23.32,1.26,1.26,0,0,0,1.14,0,.41.41,0,0,0,.25-.34Z"/></g><g class="cls-4"><path class="cls-41" d="M52.75,72.48c.31.19.3.48,0,.66a1.26,1.26,0,0,1-1.14,0c-.31-.19-.3-.48,0-.66A1.26,1.26,0,0,1,52.75,72.48Z"/><path class="cls-41" d="M53,65.52c0-1.18,0-.57,0-1.58a.27.27,0,0,0,0,0,.29.29,0,0,0,0,0l0-.05,0,0,0-.05,0,0-.1-.07a1.26,1.26,0,0,0-1.14,0l-.11.07,0,0-.05.06,0,0,0,.05v0a.28.28,0,0,0,0,.05h0v1.57c0,1.18,0,6.27,0,7.28a.4.4,0,0,0,.23.32,1.26,1.26,0,0,0,1.14,0A.41.41,0,0,0,53,72.8Z"/></g><g class="cls-4"><polygon class="cls-42" points="61.33 69.51 72.36 63.06 72.36 63.94 61.33 70.39 61.33 69.51"/><polygon class="cls-43" points="50.43 63.22 61.47 56.77 72.36 63.06 61.33 69.51 50.43 63.22"/><polygon class="cls-44" points="61.33 69.51 61.33 70.39 50.43 64.1 50.43 63.22 61.33 69.51"/></g><g class="cls-4"><polygon class="cls-42" points="71.58 48.29 72.38 47.83 72.36 63.07 71.56 63.53 71.58 48.29"/><polygon class="cls-43" points="60.68 42 61.48 41.54 72.38 47.83 71.58 48.29 60.68 42"/><polygon class="cls-45" points="71.58 48.29 71.56 63.53 60.66 57.24 60.68 42 71.58 48.29"/></g><g class="cls-4"><polygon class="cls-46" points="93.56 103.64 104.8 97.11 104.9 86.92 93.66 93.45 93.56 103.64"/><polygon class="cls-47" points="93.66 93.45 104.9 86.92 89.69 78.13 78.44 84.67 93.66 93.45"/><polygon class="cls-48" points="78.44 84.67 78.34 94.86 93.56 103.64 93.66 93.45 78.44 84.67"/></g><polygon class="cls-49" points="83.16 88.46 92.79 94.01 92.79 101.96 83.16 96.41 83.16 88.46"/><polygon class="cls-50" points="92.44 94.21 83.5 89.06 83.5 96.2 92.44 101.36 92.44 94.21"/><polygon class="cls-49" points="78.74 86.06 82.91 88.47 82.91 90.22 78.74 87.81 78.74 86.06"/><polygon class="cls-51" points="83.77 94.9 84.32 95.22 84.32 90.94 83.77 90.63 83.77 94.9"/><path class="cls-49" d="M80.46,93.12c-.5-.29-.91-.12-.91.39a1.9,1.9,0,0,0,.91,1.44c.5.29.91.12.91-.39A1.89,1.89,0,0,0,80.46,93.12Z"/><polygon class="cls-52" points="80.42 93.92 80.51 93.97 80.51 93.23 80.42 93.18 80.42 93.92"/><path class="cls-53" d="M82.14,90.9c-.23-.13-.41-.05-.41.17a.86.86,0,0,0,.41.65c.23.13.41.05.41-.17A.86.86,0,0,0,82.14,90.9Z"/><path class="cls-53" d="M80.83,90.15c-.23-.13-.41-.05-.41.17a.86.86,0,0,0,.41.65c.23.13.41.05.41-.17A.85.85,0,0,0,80.83,90.15Z"/><path class="cls-53" d="M79.52,89.39c-.23-.13-.41-.05-.41.17a.86.86,0,0,0,.41.65c.23.13.41.05.41-.17A.86.86,0,0,0,79.52,89.39Z"/><path class="cls-53" d="M82.14,92.57c-.23-.13-.41-.05-.41.17a.86.86,0,0,0,.41.65c.23.13.41.05.41-.17A.86.86,0,0,0,82.14,92.57Z"/><path class="cls-53" d="M80.83,91.81c-.23-.13-.41-.05-.41.17a.86.86,0,0,0,.41.65c.23.13.41.05.41-.17A.85.85,0,0,0,80.83,91.81Z"/><path class="cls-53" d="M79.52,91.05c-.23-.13-.41-.05-.41.17a.86.86,0,0,0,.41.65c.23.13.41.05.41-.17A.86.86,0,0,0,79.52,91.05Z"/></svg>