<?xml version="1.0" encoding="utf-8"?>
<!-- Generator: Adobe Illustrator 22.1.0, SVG Export Plug-In . SVG Version: 6.00 Build 0)  -->
<svg version="1.1" id="Layer_1" xmlns="http://www.w3.org/2000/svg" xmlns:xlink="http://www.w3.org/1999/xlink" x="0px" y="0px"
	 viewBox="0 0 200 115.7" style="enable-background:new 0 0 200 115.7;" xml:space="preserve">
<style type="text/css">
	.st0{fill:none;stroke:#303030;stroke-width:2.6747;stroke-miterlimit:10;}
	.st1{fill:none;stroke:#3CC272;stroke-width:2.716;stroke-miterlimit:10;}
	.st2{fill:none;stroke:#3CC272;stroke-width:3.8024;stroke-miterlimit:10;}
	.st3{fill:none;stroke:#C7C7C7;stroke-width:2.1728;stroke-linejoin:round;stroke-miterlimit:10;}
	.st4{fill:none;stroke:#303030;stroke-width:3.8024;stroke-miterlimit:10;}
	.st5{fill:#303030;}
	.st6{fill:none;}
	.st7{fill:none;stroke:#303030;stroke-width:0.5432;stroke-miterlimit:10;}
	.st8{fill:none;stroke:#C7C7C7;stroke-width:1.6296;stroke-miterlimit:10;}
	.st9{fill:none;stroke:#C7C7C7;stroke-width:2.1728;stroke-linecap:round;stroke-linejoin:round;stroke-miterlimit:10;}
	.st10{fill:#FFD29C;}
	.st11{fill:none;stroke:#FFD29C;stroke-width:1.0011;stroke-miterlimit:10;}
</style>
<g>
	<g>
		<circle class="st0" cx="39.6" cy="77.3" r="36"/>
		<line class="st1" x1="90.2" y1="77.3" x2="39.4" y2="77.5"/>
		<line class="st1" x1="70.5" y1="24.6" x2="39.3" y2="77.1"/>
		<line class="st2" x1="70.5" y1="24.3" x2="139" y2="24.3"/>
		<polyline class="st3" points="137.7,22 133.3,12 146.8,12 		"/>
		<path class="st4" d="M149.4,30.1c4.2-1.7,8.3-4.8,8.3-9.9c0-4.3-4.4-8.1-9.2-8.1c-1,0-3.8,0-3.8,0"/>
		<line class="st3" x1="68.9" y1="19.8" x2="65.2" y2="8.9"/>
		<circle class="st5" cx="39.6" cy="77.3" r="3.4"/>
		<circle class="st5" cx="160.4" cy="77.6" r="3.4"/>
		<circle class="st0" cx="160.4" cy="77.3" r="36"/>
		<line class="st6" x1="89.7" y1="74.7" x2="89.7" y2="74.7"/>
		<line class="st7" x1="39.2" y1="80.4" x2="90.2" y2="87.1"/>
		<polyline class="st2" points="68.5,18.3 90.2,77.3 141.8,30.2 		"/>
		<line class="st8" x1="86.3" y1="94.3" x2="94.2" y2="60.5"/>
		<line class="st9" x1="144.7" y1="38.8" x2="160.2" y2="77.3"/>
		<line class="st2" x1="137.2" y1="21.3" x2="145.4" y2="39.7"/>
		<path class="st5" d="M51.9,5.2c1.9,1.7,5.5,5.2,9.7,5.2s5.8-1.6,8.2-2.4c2.4-0.8,5.5-1.2,7.5,0.1S80.5,8.5,80,7
			c-0.5-1.6-2.3-3.4-6.6-3.4c-4.3,0-10.6,0.7-12.7-0.4S55.9,0,53.4,0c-2.5,0-3.5,1-3.5,2.4S50.6,4.1,51.9,5.2z"/>
		<path class="st5" d="M100.2,77.3c0,5.5-4.5,10-10,10s-10-4.5-10-10s4.5-10,10-10S100.2,71.8,100.2,77.3z M90.2,68.5
			c-1.7,0-3,1.3-3,3s1.3,3,3,3s3-1.3,3-3S91.9,68.5,90.2,68.5z M98.7,74.6c-0.5-1.6-2.2-2.5-3.8-1.9s-2.5,2.2-1.9,3.8
			s2.2,2.5,3.8,1.9S99.2,76.2,98.7,74.6z M95.4,84.5c1.3-1,1.7-2.9,0.7-4.2c-1-1.3-2.9-1.7-4.2-0.7c-1.3,1-1.7,2.9-0.7,4.2
			C92.2,85.2,94.1,85.5,95.4,84.5z M85,84.5c1.3,1,3.2,0.7,4.2-0.7c1-1.3,0.7-3.2-0.7-4.2c-1.3-1-3.2-0.7-4.2,0.7
			C83.4,81.7,83.7,83.5,85,84.5z M81.8,74.6c-0.5,1.6,0.3,3.3,1.9,3.8c1.6,0.5,3.3-0.3,3.8-1.9c0.5-1.6-0.3-3.3-1.9-3.8
			C84,72.2,82.3,73,81.8,74.6z"/>
		<path class="st10" d="M97.1,60.5c0-0.5,0.4-0.9,0.9-0.9v-0.8h-7.5v0.8c0.5,0,0.9,0.4,0.9,0.9c0,0.5-0.4,0.9-0.9,0.9v0.8h7.5v-0.8
			C97.5,61.4,97.1,61,97.1,60.5z"/>
		<path class="st10" d="M89.2,94.3c0-0.5,0.4-0.9,0.9-0.9v-0.8h-7.5v0.8c0.5,0,0.9,0.4,0.9,0.9c0,0.5-0.4,0.9-0.9,0.9V96H90v-0.8
			C89.6,95.2,89.2,94.8,89.2,94.3z"/>
		<line class="st7" x1="90.2" y1="67.8" x2="39.1" y2="74.3"/>
	</g>
	<line class="st11" x1="200" y1="115.2" x2="0" y2="115.2"/>
</g>
</svg>
