<svg id="Layer_1" data-name="Layer 1" xmlns="http://www.w3.org/2000/svg" xmlns:xlink="http://www.w3.org/1999/xlink" viewBox="0 0 118.05 102.15"><defs><style>.cls-1{fill:#eae9e4;}.cls-1,.cls-2,.cls-3{stroke:#fff;}.cls-1,.cls-2,.cls-25,.cls-3{stroke-miterlimit:10;}.cls-2{fill:url(#linear-gradient);}.cls-3{fill:url(#linear-gradient-2);}.cls-4{isolation:isolate;}.cls-5{fill:#3d1701;}.cls-6{fill:#250e01;}.cls-7{fill:#692901;}.cls-8{fill:#ffcc94;}.cls-9{fill:#7295aa;}.cls-10{fill:#ffa323;}.cls-11{fill:#ffb923;}.cls-12{fill:#072e47;}.cls-13{fill:#414042;}.cls-13,.cls-14,.cls-15,.cls-16,.cls-17,.cls-18,.cls-20,.cls-21,.cls-22{fill-rule:evenodd;}.cls-14{fill:url(#GradientFill_187);}.cls-15,.cls-19{fill:#231f20;}.cls-16{fill:url(#GradientFill_187-2);}.cls-17{fill:url(#GradientFill_187-3);}.cls-18{fill:url(#GradientFill_187-4);}.cls-20,.cls-23{fill:#5bdd90;}.cls-21,.cls-24{fill:#28ad5e;}.cls-22{fill:#3fc977;}.cls-25{fill:none;stroke:#231f20;stroke-width:0.5px;}.cls-26{fill:#e4b185;}.cls-27{fill:#b38a68;}.cls-28{fill:#cd9f78;}.cls-29{fill:#998458;}.cls-30{fill:#b29867;}.cls-31{fill:url(#linear-gradient-3);}.cls-32{fill:#9c9b9b;}</style><linearGradient id="linear-gradient" x1="90.92" y1="32.66" x2="80.7" y2="54.6" gradientUnits="userSpaceOnUse"><stop offset="0" stop-color="#eae9e4" stop-opacity="0"/><stop offset="1" stop-color="#eae9e4"/></linearGradient><linearGradient id="linear-gradient-2" x1="26.45" y1="31.31" x2="37.74" y2="56.67" xlink:href="#linear-gradient"/><linearGradient id="GradientFill_187" x1="-7201.52" y1="66.9" x2="-7199.07" y2="53.05" gradientTransform="matrix(-1, 0, 0, 1, -7180.25, 0)" gradientUnits="userSpaceOnUse"><stop offset="0" stop-color="#fff"/><stop offset="1" stop-color="#bfbcaf"/></linearGradient><linearGradient id="GradientFill_187-2" x1="-7219.02" y1="77.41" x2="-7216.57" y2="63.56" xlink:href="#GradientFill_187"/><linearGradient id="GradientFill_187-3" x1="-7216.77" y1="57.96" x2="-7214.33" y2="44.12" xlink:href="#GradientFill_187"/><linearGradient id="GradientFill_187-4" x1="-7234.27" y1="68.47" x2="-7231.83" y2="54.62" xlink:href="#GradientFill_187"/><linearGradient id="linear-gradient-3" x1="79.45" y1="71.29" x2="85.82" y2="71.29" gradientUnits="userSpaceOnUse"><stop offset="0.06" stop-color="#c6c6c5"/><stop offset="1" stop-color="#9c9b9b"/></linearGradient></defs><title>Artboard 6@2x</title><polygon class="cls-1" points="59.32 101.57 30.17 84.88 59.03 68.7 88.18 85.4 59.32 101.57"/><polygon class="cls-1" points="30.17 84.88 1.01 68.18 29.87 52.01 59.03 68.7 30.17 84.88"/><polygon class="cls-1" points="88.18 85.4 59.03 68.7 87.89 52.53 117.04 69.22 88.18 85.4"/><polygon class="cls-1" points="59.03 68.7 29.87 52.01 58.73 35.83 87.89 52.53 59.03 68.7"/><polygon class="cls-2" points="116.88 42.87 58.57 9.47 58.73 35.83 117.04 69.22 116.88 42.87"/><polygon class="cls-3" points="0.86 41.82 58.57 9.47 58.73 35.83 1.01 68.18 0.86 41.82"/><g class="cls-4"><g class="cls-4"><path class="cls-5" d="M67.53,26,64,24a1.12,1.12,0,0,0-.63-.14l3.5,2a1.12,1.12,0,0,1,.63.14Z"/><path class="cls-5" d="M66.9,25.86l-3.5-2a1.84,1.84,0,0,0-.71.2l3.5,2a1.84,1.84,0,0,1,.71-.2Z"/><path class="cls-5" d="M66.2,26.05l-3.5-2-.17.09,3.5,2,.17-.09Z"/></g><g class="cls-4"><path class="cls-6" d="M46.76,54.2l-3.5-2a1.48,1.48,0,0,0,.62,1.35l3.5,2a1.48,1.48,0,0,1-.62-1.35Z"/></g><polygon class="cls-6" points="46.72 39.72 43.23 37.69 43.26 52.16 46.76 54.2 46.72 39.72"/><polygon class="cls-5" points="66.03 26.14 62.53 24.11 45.33 34.04 48.83 36.07 66.03 26.14"/><g class="cls-4"><g class="cls-4"><path class="cls-5" d="M48.83,36.07l-3.5-2a4.67,4.67,0,0,0-1.89,2.45l3.5,2a4.67,4.67,0,0,1,1.89-2.45Z"/><path class="cls-6" d="M46.94,38.53l-3.5-2a3.93,3.93,0,0,0-.2.92l3.5,2a3.93,3.93,0,0,1,.2-.92Z"/><path class="cls-6" d="M46.73,39.45l-3.5-2q0,.14,0,.27l3.5,2q0-.13,0-.27Z"/></g></g><path class="cls-7" d="M48.83,36.07a4.66,4.66,0,0,0-2.11,3.65l0,14.48c0,1.34,1,1.88,2.12,1.21l17.2-9.93a4.66,4.66,0,0,0,2.1-3.65l0-14.48c0-1.34-1-1.88-2.12-1.21Z"/></g><g class="cls-4"><g class="cls-4"><path class="cls-8" d="M64.61,15.84l3-1.73a1.69,1.69,0,0,0-1.71-.16l-3,1.73a1.69,1.69,0,0,1,1.71.16Z"/></g><g class="cls-4"><g class="cls-4"><path class="cls-9" d="M88.68,49.05l3-1.73a1.68,1.68,0,0,0,.7-1.54l-3,1.73a1.68,1.68,0,0,1-.7,1.54Z"/></g></g><polygon class="cls-10" points="89.38 47.51 92.36 45.78 92.41 31.01 89.42 32.74 89.38 47.51"/><polygon class="cls-8" points="87.03 28.59 90.01 26.86 67.6 14.11 64.61 15.84 87.03 28.59"/><g class="cls-4"><path class="cls-8" d="M89.42,32.74l3-1.73A5.3,5.3,0,0,0,90,26.86l-3,1.73a5.3,5.3,0,0,1,2.4,4.15Z"/></g><path class="cls-11" d="M64.61,15.84c-1.32-.76-2.41-.14-2.41,1.37l0,17.59c0,1.52,1.07.57,2.4,1.33L87,48.89c1.32.76,2.41.14,2.41-1.38l0-14.77A5.3,5.3,0,0,0,87,28.59Z"/></g><g class="cls-4"><g class="cls-4"><path class="cls-5" d="M46.27,49.14v5.06a1.48,1.48,0,0,0,.86,1.21V50.35a1.48,1.48,0,0,1-.86-1.21Z"/></g><g class="cls-4"><path class="cls-12" d="M84.21,53.39v5.06a1.49,1.49,0,0,0,.87-1.23V52.16a1.49,1.49,0,0,1-.87,1.23Z"/></g><polygon class="cls-5" points="47.13 50.35 47.14 55.41 69.37 68.34 66.14 61.39 47.13 50.35"/><polygon class="cls-12" points="70.35 61.39 70.36 66.45 84.22 58.45 84.21 53.39 70.35 61.39"/><g class="cls-4"><path class="cls-5" d="M66.14,61.39v5.06a4.66,4.66,0,0,0,4.21,0V61.39a4.66,4.66,0,0,1-4.21,0Z"/></g><path class="cls-7" d="M47.14,47.91a1.29,1.29,0,0,0,0,2.44l19,11a4.66,4.66,0,0,0,4.21,0l13.86-8a1.29,1.29,0,0,0,0-2.44l-19-11a4.66,4.66,0,0,0-4.21,0Z"/></g><g class="cls-4"><path class="cls-10" d="M47.13,45l19,11a4.66,4.66,0,0,0,4.21,0l13.86-8a1.49,1.49,0,0,0,.87-1.23v5.06a1.49,1.49,0,0,1-.87,1.23l-13.86,8a4.66,4.66,0,0,1-4.21,0l-19-11a1.48,1.48,0,0,1-.86-1.21V43.76A1.48,1.48,0,0,0,47.13,45Z"/><path class="cls-8" d="M47.14,42.53a1.29,1.29,0,0,0,0,2.44l19,11a4.66,4.66,0,0,0,4.21,0l13.86-8a1.29,1.29,0,0,0,0-2.44l-19-11a4.66,4.66,0,0,0-4.21,0Z"/></g><g class="cls-4"><g class="cls-4"><path class="cls-6" d="M71.07,68.34l-3.5-2a1.48,1.48,0,0,0,.62,1.35l3.5,2a1.48,1.48,0,0,1-.62-1.35Z"/></g><polygon class="cls-6" points="71.04 55.36 67.54 53.33 67.58 66.31 71.08 68.34 71.04 55.36"/><g class="cls-4"><g class="cls-4"><path class="cls-7" d="M69.65,49.68l17.2-9.93.17-.09a1.84,1.84,0,0,1,.71-.2,1.12,1.12,0,0,1,.63.14l3.5,2a1.12,1.12,0,0,0-.63-.14,1.84,1.84,0,0,0-.71.2l-.17.09-17.2,9.93a4.67,4.67,0,0,0-1.89,2.45l-3.5-2A4.67,4.67,0,0,1,69.65,49.68Z"/><path class="cls-6" d="M71.25,54.17l-3.5-2a3.93,3.93,0,0,0-.2.92l3.5,2a3.93,3.93,0,0,1,.2-.92Z"/><path class="cls-6" d="M71,55.09l-3.5-2q0,.14,0,.27l3.5,2c0-.09,0-.18,0-.27Z"/></g></g><path class="cls-5" d="M73.14,51.72A4.66,4.66,0,0,0,71,55.36l0,13c0,1.34,1,1.88,2.12,1.21l17.2-9.93A4.66,4.66,0,0,0,92.5,56l0-13c0-1.34-1-1.88-2.12-1.21Z"/></g><path class="cls-13" d="M20.77,56.65c-2.83-1.64-5.13-.31-5.13,3a11.34,11.34,0,0,0,5.13,8.89c2.83,1.64,5.13.31,5.13-3a11.34,11.34,0,0,0-5.13-8.89Zm4.1,8.29c0,2.61-1.83,3.67-4.1,2.36a9.05,9.05,0,0,1-4.1-7.09c0-2.61,1.83-3.67,4.1-2.36A9.05,9.05,0,0,1,24.87,64.94Z"/><path class="cls-14" d="M20.54,57.48C18,56,16,57.2,16,60.13a10.14,10.14,0,0,0,4.59,7.95c2.53,1.46,4.59.28,4.59-2.65a10.14,10.14,0,0,0-4.59-7.95Zm3.66,7.41c0,2.34-1.64,3.28-3.66,2.11a8.09,8.09,0,0,1-3.66-6.34c0-2.33,1.64-3.28,3.66-2.11A8.09,8.09,0,0,1,24.21,64.89Z"/><path class="cls-15" d="M20.17,56.93c-2.83-1.64-5.13-.31-5.13,3a11.34,11.34,0,0,0,5.13,8.89c2.83,1.64,5.13.31,5.13-3a11.34,11.34,0,0,0-5.13-8.89Zm4.1,8.29c0,2.61-1.83,3.67-4.1,2.36a9.05,9.05,0,0,1-4.1-7.09c0-2.61,1.83-3.67,4.1-2.36A9.05,9.05,0,0,1,24.27,65.22Z"/><path class="cls-15" d="M20.18,61.22a3,3,0,0,1,1.35,2.33c0,.86-.6,1.21-1.35.78A3,3,0,0,1,18.83,62C18.83,61.14,19.43,60.79,20.18,61.22Z"/><path class="cls-13" d="M38.27,67.15c-2.83-1.64-5.13-.31-5.13,3A11.34,11.34,0,0,0,38.27,79c2.83,1.64,5.13.31,5.13-3a11.34,11.34,0,0,0-5.13-8.89Zm4.1,8.29c0,2.61-1.83,3.67-4.1,2.36a9.05,9.05,0,0,1-4.1-7.09c0-2.61,1.83-3.67,4.1-2.36A9.05,9.05,0,0,1,42.37,75.44Z"/><path class="cls-16" d="M38,68c-2.53-1.46-4.59-.28-4.59,2.65A10.14,10.14,0,0,0,38,78.58c2.53,1.46,4.59.28,4.59-2.65A10.14,10.14,0,0,0,38,68ZM41.7,75.4c0,2.34-1.64,3.28-3.66,2.11a8.09,8.09,0,0,1-3.66-6.34c0-2.33,1.64-3.28,3.66-2.11A8.09,8.09,0,0,1,41.7,75.4Z"/><path class="cls-15" d="M37.67,67.44c-2.83-1.64-5.13-.31-5.13,3a11.34,11.34,0,0,0,5.13,8.89c2.83,1.64,5.13.31,5.13-3a11.34,11.34,0,0,0-5.13-8.89Zm4.1,8.29c0,2.61-1.83,3.67-4.1,2.36A9.05,9.05,0,0,1,33.58,71c0-2.61,1.83-3.67,4.1-2.36A9.05,9.05,0,0,1,41.77,75.73Z"/><path class="cls-15" d="M37.67,71.73A3,3,0,0,1,39,74.06c0,.86-.6,1.21-1.35.78a3,3,0,0,1-1.35-2.33C36.33,71.65,36.93,71.3,37.67,71.73Z"/><path class="cls-13" d="M36,47.71c-2.83-1.64-5.13-.31-5.13,3A11.34,11.34,0,0,0,36,59.56c2.83,1.64,5.13.31,5.13-3A11.34,11.34,0,0,0,36,47.71ZM40.12,56c0,2.61-1.83,3.67-4.1,2.36a9.05,9.05,0,0,1-4.1-7.09c0-2.61,1.83-3.67,4.1-2.36A9.05,9.05,0,0,1,40.12,56Z"/><path class="cls-17" d="M35.8,48.54c-2.53-1.46-4.59-.28-4.59,2.65a10.14,10.14,0,0,0,4.59,7.95c2.53,1.46,4.59.28,4.59-2.65a10.14,10.14,0,0,0-4.59-7.95ZM39.46,56c0,2.34-1.64,3.28-3.66,2.11a8.09,8.09,0,0,1-3.66-6.34c0-2.33,1.64-3.28,3.66-2.11A8.09,8.09,0,0,1,39.46,56Z"/><path class="cls-15" d="M35.43,48c-2.83-1.64-5.13-.31-5.13,3a11.34,11.34,0,0,0,5.13,8.89c2.83,1.64,5.13.31,5.13-3A11.34,11.34,0,0,0,35.43,48Zm4.1,8.29c0,2.61-1.83,3.67-4.1,2.36a9.05,9.05,0,0,1-4.1-7.09c0-2.61,1.83-3.67,4.1-2.36A9.05,9.05,0,0,1,39.52,56.29Z"/><path class="cls-15" d="M35.43,52.28a3,3,0,0,1,1.35,2.33c0,.86-.6,1.21-1.35.78a3,3,0,0,1-1.35-2.33C34.08,52.2,34.68,51.85,35.43,52.28Z"/><path class="cls-13" d="M53.52,58.22c-2.83-1.64-5.13-.31-5.13,3a11.34,11.34,0,0,0,5.13,8.89c2.83,1.64,5.13.31,5.13-3a11.34,11.34,0,0,0-5.13-8.89Zm4.1,8.29c0,2.61-1.83,3.67-4.1,2.36a9.05,9.05,0,0,1-4.1-7.09c0-2.61,1.83-3.67,4.1-2.36A9.05,9.05,0,0,1,57.62,66.51Z"/><path class="cls-18" d="M53.29,59.05c-2.53-1.46-4.59-.28-4.59,2.65a10.14,10.14,0,0,0,4.59,7.95c2.53,1.46,4.59.28,4.59-2.65a10.14,10.14,0,0,0-4.59-7.95ZM57,66.46c0,2.34-1.64,3.28-3.66,2.11a8.09,8.09,0,0,1-3.66-6.34c0-2.33,1.64-3.28,3.66-2.11A8.09,8.09,0,0,1,57,66.46Z"/><path class="cls-15" d="M52.93,58.51c-2.83-1.64-5.13-.31-5.13,3a11.34,11.34,0,0,0,5.13,8.89c2.83,1.64,5.13.31,5.13-3a11.34,11.34,0,0,0-5.13-8.89ZM57,66.8c0,2.61-1.83,3.67-4.1,2.36a9.05,9.05,0,0,1-4.1-7.09c0-2.61,1.83-3.67,4.1-2.36A9.05,9.05,0,0,1,57,66.8Z"/><path class="cls-15" d="M52.93,62.79a3,3,0,0,1,1.35,2.33c0,.86-.6,1.21-1.35.78a3,3,0,0,1-1.35-2.33C51.58,62.71,52.18,62.36,52.93,62.79Z"/><rect class="cls-19" x="29.46" y="43.23" width="0.76" height="32.48" transform="translate(-25.72 22.87) rotate(-29.98)"/><rect class="cls-19" x="44.54" y="34.31" width="0.76" height="32.48" transform="translate(-19.25 29.21) rotate(-29.98)"/><polygon class="cls-20" points="44.58 21.55 31.78 28.94 24.27 24.6 37.07 17.21 44.58 21.55"/><path class="cls-21" d="M46.94,53.12h0a21.46,21.46,0,0,0,9.13-10.45l.39-.95-12.8,7.39-9.58,3.95h0A12.75,12.75,0,0,0,46.94,53.12Z"/><polygon class="cls-21" points="21.52 24.6 34.32 17.21 37.07 17.21 24.27 24.6 21.52 24.6"/><polygon class="cls-21" points="28.93 40.68 41.73 33.29 44.58 21.55 31.78 28.94 28.93 40.68"/><polygon class="cls-20" points="41.73 33.29 56.45 41.72 43.66 49.11 28.93 40.68 41.73 33.29"/><path class="cls-22" d="M43.66,49.11,28.93,40.68l2.85-11.74L24.27,24.6H21.52L18.3,26.37,16,29.54v6.75l.93.46v6.43l16.37,9.49a7.3,7.3,0,0,0,10.41-3.56Z"/><polygon class="cls-23" points="24.27 24.6 26.37 39.21 28.93 40.68 31.78 28.94 24.27 24.6"/><polygon class="cls-24" points="21.52 24.6 25.13 38.5 26.37 39.21 24.27 24.6 21.52 24.6"/><polygon class="cls-23" points="21.52 24.6 18.3 26.38 23.68 37.67 25.13 38.5 21.52 24.6"/><polygon class="cls-24" points="18.3 26.38 15.96 29.54 22.35 36.91 23.68 37.67 18.3 26.38"/><line class="cls-25" x1="37.63" y1="73.73" x2="52.71" y2="64.81"/><line class="cls-25" x1="20.49" y1="62.88" x2="35.57" y2="53.96"/><polygon class="cls-26" points="94.29 78.52 111.29 68.7 111.29 9.81 94.29 19.63 94.29 78.52"/><polygon class="cls-27" points="94.29 78.52 77.29 68.7 77.29 9.81 94.29 19.63 94.29 78.52"/><polygon class="cls-28" points="111.29 9.81 94.29 0 77.29 9.81 82.86 13.03 94.29 19.63 111.29 9.81"/><polygon class="cls-29" points="87.12 22.09 82.86 19.63 82.86 13.03 87.12 15.49 87.12 22.09"/><polygon class="cls-30" points="104.12 5.68 99.86 3.22 82.86 13.03 87.12 15.49 104.12 5.68"/><polygon class="cls-26" points="74.81 89.34 90.45 80.31 90.45 62.26 74.81 71.28 74.81 89.34"/><polygon class="cls-27" points="74.81 89.34 59.17 80.31 59.17 62.26 74.81 71.28 74.81 89.34"/><polygon class="cls-28" points="90.45 62.26 74.81 53.23 59.17 62.26 69.56 68.25 74.81 71.28 90.45 62.26"/><polygon class="cls-29" points="67.6 70.16 65.64 69.02 65.64 65.99 67.6 67.12 67.6 70.16"/><polygon class="cls-30" points="83.24 58.09 81.28 56.96 65.64 65.99 67.6 67.12 83.24 58.09"/><g id="_Group_" data-name="&lt;Group&gt;"><polygon id="_Path_" data-name="&lt;Path&gt;" class="cls-31" points="79.46 70.75 85.82 67 85.8 71.82 79.45 75.57 79.46 70.75"/><g id="_Group_2" data-name="&lt;Group&gt;"><g id="_Group_3" data-name="&lt;Group&gt;"><polygon id="_Path_2" data-name="&lt;Path&gt;" class="cls-32" points="81.35 70.46 81.35 70.7 79.96 71.51 79.96 71.28 81.35 70.46"/></g><g id="_Group_4" data-name="&lt;Group&gt;"><polygon id="_Path_3" data-name="&lt;Path&gt;" class="cls-32" points="85.35 70.99 85.35 71.22 83.96 72.04 83.96 71.8 85.35 70.99"/></g><g id="_Group_5" data-name="&lt;Group&gt;"><polygon id="_Path_4" data-name="&lt;Path&gt;" class="cls-32" points="85.35 71.42 85.35 71.65 83.96 72.47 83.96 72.23 85.35 71.42"/></g><g id="_Group_6" data-name="&lt;Group&gt;"><polygon id="_Path_5" data-name="&lt;Path&gt;" class="cls-32" points="83.41 69.9 83.41 70.13 79.96 72.16 79.96 71.92 83.41 69.9"/></g><g id="_Group_7" data-name="&lt;Group&gt;"><polygon id="_Path_6" data-name="&lt;Path&gt;" class="cls-32" points="83.41 70.38 83.41 70.62 79.96 72.64 79.96 72.41 83.41 70.38"/></g><g id="_Group_8" data-name="&lt;Group&gt;"><polygon id="_Path_7" data-name="&lt;Path&gt;" class="cls-32" points="82.44 71.42 82.44 71.65 79.96 73.11 79.96 72.87 82.44 71.42"/></g></g></g></svg>